HIERARCHY
ROOT Hips
{
	OFFSET 0.000000 0.000000 0.000000 
	CHANNELS 6 Xposition Yposition Zposition Zrotation Xrotation Yrotation
	JOINT Spine
	{
		OFFSET -0.000000 8.061080 0.000000 
		CHANNELS 3 Zrotation Xrotation Yrotation
		JOINT Spine1
		{
			OFFSET -0.000000 20.532677 0.000000 
			CHANNELS 3 Zrotation Xrotation Yrotation
			JOINT Neck
			{
				OFFSET -0.000000 22.498795 0.000000 
				CHANNELS 3 Zrotation Xrotation Yrotation
				JOINT Head
				{
					OFFSET -0.000000 15.237408 1.966117 
					CHANNELS 3 Zrotation Xrotation Yrotation
					End Site
					{
						OFFSET -0.000000 19.661171 0.000000 
					}
				}
			}
			JOINT LeftShoulder
			{
				OFFSET 3.894675 16.042269 -0.398189 
				CHANNELS 3 Zrotation Xrotation Yrotation
				JOINT LeftArm
				{
					OFFSET 19.709621 0.000000 0.000000 
					CHANNELS 3 Zrotation Xrotation Yrotation
					JOINT LeftForeArm
					{
						OFFSET 25.566900 0.000000 0.000000 
						CHANNELS 3 Zrotation Xrotation Yrotation
						JOINT LeftHand
						{
							OFFSET 25.401896 0.000000 0.000000 
							CHANNELS 3 Zrotation Xrotation Yrotation
							End Site
							{
								OFFSET 14.745877 0.000000 0.000000 
							}
						}
					}
				}
			}
			JOINT RightShoulder
			{
				OFFSET -3.930777 16.042269 -0.398189 
				CHANNELS 3 Zrotation Xrotation Yrotation
				JOINT RightArm
				{
					OFFSET -19.709621 0.000000 0.000000 
					CHANNELS 3 Zrotation Xrotation Yrotation
					JOINT RightForeArm
					{
						OFFSET -25.566900 0.000000 0.000000 
						CHANNELS 3 Zrotation Xrotation Yrotation
						JOINT RightHand
						{
							OFFSET -25.401896 0.000000 0.000000 
							CHANNELS 3 Zrotation Xrotation Yrotation
							End Site
							{
								OFFSET -14.745877 0.000000 0.000000 
							}
						}
					}
				}
			}
		}
	}
	JOINT LeftUpLeg
	{
		OFFSET 9.830585 0.000000 0.000000 
		CHANNELS 3 Zrotation Xrotation Yrotation
		JOINT LeftLeg
		{
			OFFSET -0.000000 -46.474842 0.000000 
			CHANNELS 3 Zrotation Xrotation Yrotation
			JOINT LeftFoot
			{
				OFFSET -0.000000 -30.290520 0.000000 
				CHANNELS 3 Zrotation Xrotation Yrotation
				JOINT LeftToeBase
				{
					OFFSET -0.000000 -6.389880 14.745877 
					CHANNELS 3 Zrotation Xrotation Yrotation
					End Site
					{
						OFFSET -0.000000 0.000000 3.932234 
					}
				}
			}
		}
	}
	JOINT RightUpLeg
	{
		OFFSET -9.830585 0.000000 0.000000 
		CHANNELS 3 Zrotation Xrotation Yrotation
		JOINT RightLeg
		{
			OFFSET -0.000000 -46.474842 0.000000 
			CHANNELS 3 Zrotation Xrotation Yrotation
			JOINT RightFoot
			{
				OFFSET -0.000000 -30.290520 0.000000 
				CHANNELS 3 Zrotation Xrotation Yrotation
				JOINT RightToeBase
				{
					OFFSET -0.000000 -6.389880 14.745877 
					CHANNELS 3 Zrotation Xrotation Yrotation
					End Site
					{
						OFFSET -0.000000 0.000000 3.932234 
					}
				}
			}
		}
	}
}
MOTION
Frames: 12
Frame Time: 0.010000
-15.026769 85.811096 6.009230 -7.054698 9.133554 56.568771 5.116467 -2.454579 2.936747 3.646136 -2.601294 1.021668 3.812620 8.061091 7.282104 -7.157428 14.369917 10.088391 3.503226 11.569616 -0.212935 -71.174675 25.673868 -24.899145 -11.611469 -0.592380 -8.711089 6.420319 -1.184029 5.268742 -9.232772 7.879006 -7.689247 52.989784 51.787407 36.333416 5.320617 -12.035968 7.439537 -8.642708 -12.359369 -0.202572 4.647591 -12.218944 5.733419 1.815971 1.775792 8.108142 -1.891550 9.841649 -5.472178 0.000000 0.000000 0.000000 -10.851108 -17.725594 0.504000 10.636066 8.016747 -13.170583 -11.066317 3.500437 -5.119647 0.000000 0.000000 0.000000 
-15.297504 85.830254 6.130931 -7.123127 9.001082 57.646351 5.155315 -2.563499 2.902003 3.607297 -2.511411 1.004195 3.830144 8.207574 7.475623 -7.321625 14.544192 10.348122 3.482229 11.580109 -0.146903 -71.269386 25.589985 -24.803047 -11.592322 -0.538319 -8.480269 6.352894 -1.106731 5.292852 -9.243182 7.891828 -7.770723 53.051121 51.777737 36.222878 5.333991 -12.084861 7.451207 -8.521609 -12.420768 -0.051927 4.588613 -11.868654 6.114140 1.745573 1.398823 8.440865 -1.648786 10.218923 -5.221362 0.000000 0.000000 0.000000 -10.806123 -17.395729 0.499487 10.656082 7.606350 -13.883774 -11.268484 3.554892 -5.211205 0.000000 0.000000 0.000000 
-15.557205 85.846710 6.251629 -7.186224 8.856739 58.731277 5.190255 -2.677957 2.862249 3.571733 -2.416823 0.985031 3.839630 8.371710 7.663966 -7.480574 14.677127 10.598005 3.461667 11.591377 -0.075455 -71.364784 25.509092 -24.706696 -11.569852 -0.490294 -8.264027 6.284026 -1.037657 5.302923 -9.252572 7.906857 -7.860266 53.136292 51.771503 36.096058 5.349439 -12.126041 7.452725 -8.397617 -12.473841 0.099305 4.542518 -11.494343 6.471038 1.655380 1.001116 8.807704 -1.392201 10.609003 -4.947436 0.000000 0.000000 0.000000 -10.755253 -17.053801 0.495165 10.669121 7.198052 -14.593400 -11.457081 3.603755 -5.320547 0.000000 0.000000 0.000000 
-15.806410 85.860413 6.370718 -7.244805 8.701433 59.825546 5.220892 -2.797586 2.817052 3.539751 -2.318718 0.963968 3.837851 8.555080 7.845724 -7.628727 14.761678 10.833918 3.441853 11.603519 0.000499 -71.459923 25.432070 -24.611704 -11.543819 -0.449723 -8.062298 6.213799 -0.978245 5.297068 -9.260957 7.924142 -7.957041 53.245346 51.767368 35.952522 5.367716 -12.159376 7.444221 -8.271474 -12.518435 0.250036 4.508793 -11.101523 6.806396 1.548694 0.583707 9.219328 -1.122076 11.016624 -4.665771 0.000000 0.000000 0.000000 -10.709554 -16.531639 2.270837 10.882469 6.071528 -16.883562 -11.692909 3.812809 -5.540557 0.000000 0.000000 0.000000 
-16.045696 85.871292 6.487556 -7.299671 8.536069 60.931290 5.246963 -2.921976 2.765706 3.511427 -2.218158 0.940874 3.821805 8.759906 8.019341 -7.760954 14.790084 11.051617 3.423183 11.616338 0.079991 -71.554329 25.360165 -24.519773 -11.513350 -0.418118 -7.874177 6.142145 -0.930054 5.273646 -9.268315 7.943695 -8.060224 53.377468 51.765106 35.793171 5.388422 -12.185369 7.424894 -8.143154 -12.554954 0.399824 4.486748 -10.696108 7.122717 1.429129 0.148501 9.686466 -0.838179 11.445205 -4.392534 0.000000 0.000000 0.000000 -10.637650 -16.358274 0.297905 10.655901 6.464026 -15.841705 -11.792604 3.668121 -5.582264 0.000000 0.000000 0.000000 
-16.275721 85.879303 6.601477 -7.351772 8.361587 62.050697 5.268223 -3.050997 2.707597 3.486784 -2.116101 0.915486 3.788478 8.989039 8.183152 -7.872414 14.754274 11.246828 3.405876 11.629665 0.161779 -71.647423 25.293896 -24.432182 -11.477974 -0.396798 -7.699080 6.069067 -0.894162 5.231647 -9.274545 7.965525 -8.168545 53.531872 51.764198 35.618389 5.411048 -12.204425 7.394238 -8.012525 -12.583702 0.548296 4.478566 -10.198435 7.422775 1.252536 -0.489865 9.878590 -0.551982 11.960319 -3.779240 0.000000 0.000000 0.000000 -10.568890 -16.183315 -1.729802 10.418881 6.873028 -14.750400 -11.881218 3.512145 -5.642417 0.000000 0.000000 0.000000 
-16.497181 85.884453 6.711873 -7.402006 8.178761 63.185844 5.284349 -3.184303 2.641985 3.466018 -2.013483 0.887758 3.734980 9.245982 8.335207 -7.958642 14.645465 11.415004 3.390234 11.643200 0.244838 -71.738945 25.233936 -24.350542 -11.437026 -0.386855 -7.535885 5.994358 -0.871688 5.170146 -9.279547 7.989616 -8.280999 53.707588 51.763390 35.428329 5.436072 -12.216319 7.352780 -7.879847 -12.604468 0.694874 4.479393 -9.697228 7.708967 1.072212 -1.156152 10.201707 -0.243448 12.525199 -3.266125 0.000000 0.000000 0.000000 -10.501524 -15.757656 -1.186720 10.488471 6.256668 -15.958962 -12.041580 3.587828 -5.845131 0.000000 0.000000 0.000000 
-16.710835 85.886765 6.818213 -7.451162 7.988141 64.338646 5.295163 -3.321539 2.568506 3.449292 -1.911013 0.857389 3.658373 9.534453 8.473268 -8.015568 14.455287 11.551491 3.376436 11.656473 0.327961 -71.828514 25.180490 -24.276089 -11.390238 -0.389566 -7.383558 5.917918 -0.863705 5.088238 -9.283205 8.016140 -8.396350 53.903004 51.762234 35.224144 5.462699 -12.221453 7.300305 -7.744927 -12.617554 0.839294 4.480210 -9.226924 7.983244 0.959668 -1.874451 11.644982 0.254509 13.305189 -3.911438 0.000000 0.000000 0.000000 -10.432484 -15.335413 -0.721261 10.538449 5.672565 -17.095165 -12.192513 3.655055 -6.068246 0.000000 0.000000 0.000000 
-16.917456 85.886353 6.920076 -7.499856 7.790071 65.510704 5.300431 -3.462072 2.486615 3.436931 -1.809454 0.824462 3.555885 9.858923 8.594770 -8.039547 14.174891 11.651467 3.364627 11.668818 0.410046 -71.915955 25.133865 -24.209826 -11.337200 -0.406147 -7.240972 5.839144 -0.871465 4.984841 -9.285662 8.045359 -8.513394 54.117172 51.758926 35.006069 5.491419 -12.219240 7.237698 -7.608166 -12.622403 0.980957 4.486528 -8.752986 8.249480 0.859945 -2.650515 13.258347 0.816750 14.155646 -4.720801 0.000000 0.000000 0.000000 -10.361176 -14.918909 -0.342370 10.569158 5.125021 -18.154696 -12.333348 3.713007 -6.309206 0.000000 0.000000 0.000000 
-17.117811 85.883308 7.017141 -7.548522 7.584688 66.703232 5.299852 -3.605338 2.396334 3.429518 -1.709172 0.788840 3.425097 10.223484 8.696729 -8.027952 13.796726 11.710167 3.354727 11.679446 0.489926 -72.001060 25.093950 -24.152632 -11.277740 -0.438173 -7.106912 5.757645 -0.896284 4.858599 -9.286767 8.077679 -8.630945 54.348057 51.752563 34.775486 5.521590 -12.209685 7.165301 -7.469662 -12.618966 1.119395 4.497391 -8.284806 8.510763 0.781295 -3.468509 15.029922 1.445440 15.064323 -5.693125 0.000000 0.000000 0.000000 -10.287929 -14.509985 -0.056741 10.583762 4.617117 -19.132147 -12.464230 3.761706 -6.568616 0.000000 0.000000 0.000000 
-17.312590 85.877777 7.109161 -7.597353 7.372007 67.917061 5.293314 -3.750518 2.297770 3.427495 -1.610645 0.750633 3.264075 10.632323 8.775673 -7.979035 13.314225 11.722795 3.346749 11.687641 0.566558 -72.083733 25.060495 -24.105152 -11.211687 -0.486678 -6.980441 5.671404 -0.939268 4.708393 -9.286868 8.113591 -8.747836 54.594349 51.741814 34.533287 5.553124 -12.192382 7.083980 -7.330043 -12.606829 1.253787 4.512345 -7.831231 8.770394 0.730778 -4.311955 16.948593 2.142814 16.017151 -6.828250 0.000000 0.000000 0.000000 -10.212325 -14.109985 0.132559 10.584218 4.150503 -20.026115 -12.585361 3.801602 -6.845844 0.000000 0.000000 0.000000 
-17.502356 85.869881 7.195973 -7.646237 7.151992 69.152527 5.280535 -3.896866 2.191289 3.431503 -1.513996 0.710034 3.071738 11.089174 8.827754 -7.892554 12.722380 11.684946 3.340451 11.692649 0.639013 -72.163742 25.032866 -24.067638 -11.139287 -0.553039 -6.861064 5.579289 -1.001883 4.533350 -9.286038 8.153510 -8.863107 54.854382 51.725456 34.280563 5.585711 -12.166893 6.994515 -7.189804 -12.585508 1.383323 4.531564 -7.400329 9.031640 0.713926 -5.163836 19.002846 2.910117 16.998026 -8.125927 0.000000 0.000000 0.000000 -10.133906 -13.719804 0.226084 10.572096 3.725793 -20.838037 -12.695924 3.832955 -7.140281 0.000000 0.000000 0.000000 
